<svg xmlns="http://www.w3.org/2000/svg" viewBox="0 0 400 400"><path d="M33.3719,89.3635l13.889,8.0188A183.7743,183.7743,0,0,1,187.5,16.4266V.402A199.752,199.752,0,0,0,33.3719,89.3635Zm13.8893,213.254-13.8893,8.019A199.7484,199.7484,0,0,0,187.5,399.598V383.5734A183.7687,183.7687,0,0,1,47.2612,302.6175ZM379.1417,111.006l-13.8847,8.0163A184.16,184.16,0,0,1,384,200c0,3.0067-.0891,6.0065-.2355,9h16.0127c.1345-2.9945.2228-5.9938.2228-9A200.1738,200.1738,0,0,0,379.1417,111.006Z" fill="#78be20"/><path d="M336.1024,179.8017c-.035-.2283-.0688-.4568-.1049-.6851-.1055-.6768-.2209-1.35-.3362-2.0238-.1125-.6483-.2247-1.2966-.3466-1.9443-.0494-.2657-.1019-.5305-.1529-.7957-.2994-1.5576-.6323-3.1032-.9838-4.6418-.0509-.2228-.1081-.445-.16-.6677q-.453-1.938-.9591-3.8548c-.0373-.1412-.0677-.2832-.1056-.4243-.1027-.3833-.2156-.7621-.3214-1.144-.1719-.62-.3413-1.24-.5217-1.8559q-.5057-1.7313-1.0509-3.4443c-.0459-.1429-.0928-.2855-.1392-.4282q-.389-1.2027-.8008-2.3942-.2983-.8624-.607-1.72-.176-.4916-.3552-.9816-1.9528-5.328-4.3085-10.4439c-.5441-1.1773-1.109-2.3427-1.685-3.5015l.2048-.1184-2.8-4.8428q-1.3981-2.5455-2.9036-5.0224l-2.3045-3.9863-.1434.0828q-1.4062-2.1527-2.8975-4.2451a137.2191,137.2191,0,0,0-43.4982-39.5321A139.8683,139.8683,0,0,0,253.429,73.517l-.0018.0222a53.07,53.07,0,0,1-3.3593,15.9743l-.0065.0164a122.4007,122.4007,0,0,1,48.2322,39.2866q1.5189,2.08,2.9527,4.2248l-43.3681,25.0744-5.4866-1.7187c-.3976-.1247-.7924-.2652-1.19-.3922a222.6275,222.6275,0,0,1-23.1229-8.8246c-5.2584-2.2838-10.4639-4.8142-15.5791-7.5177-2.8312-1.4964-5.6425-3.0308-8.4014-4.6415l-4.0351-2.356-4.0347,2.3575c-2.7969,1.6345-5.651,3.1925-8.5288,4.7125-5.113,2.7-10.3292,5.2349-15.6343,7.5394-6.4334,2.8667-18.9584,7.2777-23.0929,8.7159-.8373.2913-1.3386.4634-1.3666.4731l-4.6978,1.61-43.79-25.2822q1.3536-2.0175,2.7882-3.9751A122.4018,122.4018,0,0,1,149.9382,89.53l-.0089-.0224a53.068,53.068,0,0,1-3.357-15.9682l-.0013-.0163a136.273,136.273,0,0,0-58.84,47.2246q-1.3968,1.9763-2.7285,4.01l-.2046-.1181-8,13.8564.2046.1182q-.9409,1.8675-1.8213,3.7556A136.2826,136.2826,0,0,0,63.409,217.4883l.0087-.0044a52.937,52.937,0,0,1,15.52-5.0236l.0167-.003q-.5893-5.9562-.598-12.0686A120.9413,120.9413,0,0,1,89.1044,150.408c.5747-1.27,1.1778-2.5247,1.7944-3.7713L142,176.14V194.1a70.4953,70.4953,0,0,0,15.65,44.7844c9.7866,12.32,21.9785,20.1319,29.85,24.2938.5213.2756,1.0187.5318,1.5.7757V245.6335c-.4975-.3137-.9868-.6149-1.5-.9536a75.0492,75.0492,0,0,1-15.8459-13.8807A55.6442,55.6442,0,0,1,158,194.1V169.7085c.9242-.3279,1.9384-.69,3.0018-1.0734,1.8549-.6681,3.8726-1.4044,5.9168-2.1683,4.1212-1.54,8.3246-3.181,11.3905-4.5474,3.0843-1.3395,6.1474-2.7659,9.1909-4.2424,4.2464-2.06,8.4489-4.2325,12.5674-6.5344,4.0847,2.2809,8.2439,4.431,12.4326,6.4644,3.03,1.4707,6.0728,2.8881,9.123,4.2128,3.7227,1.6664,7.5137,3.233,11.3434,4.7134q3.14,1.2137,6.3146,2.3349c.9063.3212,1.8095.652,2.719.962V194.1a56.8412,56.8412,0,0,1-1.8815,14.6287c-.0245.0924-.0561.1792-.081.2712h16.52A75.78,75.78,0,0,0,258,194.1V176.5267l51.234-29.6223c.57,1.1589,1.1277,2.3245,1.6613,3.5037q1.7582,3.8858,3.2453,7.9131.1629.4444.3223.8907.2688.745.5276,1.4949.3674,1.07.7184,2.1479c.0372.1145.0747.2289.1117.3435.3247,1.009.6309,2.026.93,3.0461.1612.5515.3133,1.1071.4671,1.6619.1261.4547.2512.91.3722,1.3665q.4531,1.7129.8537,3.4309c.0447.1913.0935.381.1374.5726q.47,2.0523.871,4.11c.0442.23.09.46.1328.6912.1082.575.2078,1.15.3076,1.7258.1018.5942.2036,1.1884.2967,1.7855.0319.2019.0617.4039.0927.6058a122.093,122.093,0,0,1,1.3612,18.194c0,2.8956-.1085,5.766-.31,8.6113h16.0911A136.9994,136.9994,0,0,0,336.1024,179.8017ZM179.0813,320.2253l-.0277-.0046c-.8527-.1481-1.7042-.31-2.5552-.4764-.1571-.0309-.3151-.0592-.4719-.0907-.73-.1461-1.4592-.3041-2.188-.4641-.2736-.06-.5484-.1172-.8213-.1792-.626-.142-1.2507-.2945-1.8755-.4468-.3718-.0908-.7448-.1786-1.1153-.2729-.5279-.1339-1.0545-.2771-1.5815-.4185-.4647-.1249-.93-.2474-1.3928-.3777-.4306-.1211-.86-.25-1.29-.3761-.5545-.1629-1.1095-.3245-1.6606-.495-.3316-.1025-.6621-.2114-.9932-.3168-.6467-.2063-1.2934-.4129-1.9354-.63-.2185-.0736-.4361-.1519-.6544-.2268-.7532-.2592-1.5052-.5212-2.2517-.7947-.0805-.0294-.16-.0608-.2409-.09-1.4325-.5274-2.8571-1.0935-4.2775-1.6779-.6543-.27-1.3008-.555-1.9493-.836-.7237-.3126-1.4463-.63-2.1663-.9575q-1.25-.5713-2.4861-1.1688c-.4418-.2133-.8816-.434-1.3218-.6531A121.9938,121.9938,0,0,1,128.93,299.0488c-.013.0159-.0251.0326-.0382.0484a53.9194,53.9194,0,0,1-12.0927,10.8639c-.0237.0155-.0479.03-.0716.0459a139.8471,139.8471,0,0,0,14.4512,9.5828c2.0005,1.1551,4.0234,2.235,6.0564,3.2783.1083.0555.2164.1113.3248.1665q3.91,1.9989,7.9643,3.7465c.4242.1833.8476.37,1.2729.5485.7006.2947,1.4057.5811,2.1121.8645q.8536.342,1.71.67c.6363.2455,1.2719.4925,1.9127.7286q1.6924.6228,3.393,1.202c.4742.1607.9535.31,1.43.4653.822.268,1.6446.5323,2.4693.7841.5024.1536,1.0067.3025,1.5115.45q1.3209.3867,2.6461.7453c.4025.1093.8036.2219,1.2075.3275,1.3077.3415,2.6175.6676,3.93.969.0813.0187.1635.0349.2448.0534q1.906.4341,3.8183.81c.27.0536.5409.104.8113.1559q1.7691.3387,3.542.6319c.1788.0295.3573.06.5363.0891q4.6641.75,9.4279,1.18c.4978.0451,1.0009.07,1.5.1108V321.5c-.5-.044-1-.07-1.5-.121Q183.2843,320.95,179.0813,320.2253Z" fill="#1d428a"/><path d="M228.2841,82.0729l.015-.0379a30.409,30.409,0,0,0,1.86-15.9524l-.0075-.0535a30.515,30.515,0,0,0-60.3111.0536l-.0019.0152a30.4022,30.4022,0,0,0,1.8769,15.9752l.0057.0144A30.6571,30.6571,0,0,0,187.5,98.4637a30.4213,30.4213,0,0,0,25,0A30.6558,30.6558,0,0,0,228.2841,82.0729ZM211.62,79.3036a14.4706,14.4706,0,0,1-23.24,0l-.0209-.028a14.5,14.5,0,0,1-.8588-1.2909,14.3157,14.3157,0,0,1,0-14.6175l.0309-.0507.0233-.0382a14.4819,14.4819,0,0,1,24.87-.0346c.0147.0243.03.0483.0444.0727l.0313.0514a14.3159,14.3159,0,0,1,0,14.6163,14.5082,14.5082,0,0,1-.8369,1.262ZM105.0879,240.364a30.3227,30.3227,0,0,0-21.6849-5.31l-.0054.0007a30.3743,30.3743,0,0,0-14.7955,6.299l-.0165.013A30.4159,30.4159,0,0,0,57,265.2451c0,.9461.05,1.8805.1344,2.8048A30.489,30.489,0,0,0,98.649,293.6053c.0428-.0168.0856-.0335.1283-.0506a30.6457,30.6457,0,0,0,12.7714-9.5852c.0234-.03.0471-.0595.07-.0894a30.2931,30.2931,0,0,0,6.3936-18.635,30.4777,30.4777,0,0,0-12.9248-24.8811Zm-4.2028,30.4716c-.0149.0354-.0312.07-.0464.1051-.1516.3521-.3206.6948-.4989,1.0318a14.5158,14.5158,0,0,1-12.7622,7.7436c-.024,0-.0472.0036-.0713.0036s-.0452-.0033-.0682-.0035c-.1584-.0007-.3126-.0179-.47-.0237A14.495,14.495,0,0,1,73,265.2451a14.3432,14.3432,0,0,1,1.9644-7.24l.0277-.0456c.0671-.1143.1366-.2268.2067-.3391a14.4969,14.4969,0,0,1,11.8219-6.8254c.1626-.0054.3217-.0245.4856-.0245a14.5492,14.5492,0,0,1,1.8077.1248l.0381.0058a14.45,14.45,0,0,1,11.533,19.9345ZM352.7386,97.3826l13.8893-8.019A199.751,199.751,0,0,0,212.5.402V16.4266a183.7676,183.7676,0,0,1,140.2386,80.956ZM34.7422,119.0219l-13.8838-8.0158a200.2787,200.2787,0,0,0,0,177.9878l13.8841-8.016a184.3075,184.3075,0,0,1,0-161.956ZM212,232V368H388V232Zm58.9937,16h59.1928v24H270.9937ZM228,248h26.9937v24H228Zm0,40h65.9873v24H228Zm36.3721,64H228V328h36.3721Zm72.353,0h-56.353V328h56.353ZM372,352H352.7251V328H372Zm0-40H309.9873V288H372Zm0-40H346.1865V248H372Z" fill="#0091da"/></svg>