<svg xmlns="http://www.w3.org/2000/svg" viewBox="0 0 400 400"><path d="M47.2612,302.6175l-13.8893,8.019A199.7484,199.7484,0,0,0,187.5,399.598V383.5734A183.7687,183.7687,0,0,1,47.2612,302.6175ZM33.3719,89.3635l13.889,8.0188A183.7743,183.7743,0,0,1,187.5,16.4266V.402A199.752,199.752,0,0,0,33.3719,89.3635Zm345.77,21.6425-13.8847,8.0163A183.9012,183.9012,0,0,1,382.33,224.6336a89.7386,89.7386,0,0,1,12.92,18.6509A200.0641,200.0641,0,0,0,379.1417,111.006Z" fill="#78be20"/><path d="M208.3134,265.2451h.0267c1.1847-.53,2.5864-1.19,4.16-1.9934a96.4475,96.4475,0,0,0,21.8723-15.295A89.0231,89.0231,0,0,1,253,221.0211c.5176-1.3085,1.014-2.6374,1.4616-4.0112A73.4783,73.4783,0,0,0,258,194.1V176.5267l51.234-29.6223c.57,1.1589,1.1277,2.3245,1.6613,3.5037q1.7582,3.8858,3.2453,7.9131.1629.4444.3223.8907.2688.745.5276,1.4949.3674,1.07.7184,2.1479c.0372.1145.0747.2289.1117.3435.3247,1.009.6309,2.026.93,3.0461.1612.5515.3133,1.1071.4671,1.6619.1261.4547.2512.91.3722,1.3665q.4531,1.7129.8537,3.4309c.0447.1913.0935.381.1374.5726q.47,2.0523.871,4.11c.0442.23.09.46.1328.6912.1082.575.2078,1.15.3076,1.7258.1018.5942.2036,1.1884.2967,1.7855.0319.2019.0617.4039.0927.6058a122.0827,122.0827,0,0,1,1.2408,12.9848,89.0458,89.0458,0,0,1,16.1251,2.4876,137.6124,137.6124,0,0,0-1.5449-17.8654c-.035-.2283-.0688-.4568-.1049-.6851-.1055-.6768-.2209-1.35-.3362-2.0238-.1125-.6483-.2247-1.2966-.3466-1.9443-.0494-.2657-.1019-.5305-.1529-.7957-.2994-1.5576-.6323-3.1032-.9838-4.6418-.0509-.2228-.1081-.445-.16-.6677q-.453-1.938-.9591-3.8548c-.0373-.1412-.0677-.2832-.1056-.4243-.1027-.3833-.2156-.7621-.3214-1.144-.1719-.62-.3413-1.24-.5217-1.8559q-.5057-1.7313-1.0509-3.4443c-.0459-.1429-.0928-.2855-.1392-.4282q-.389-1.2027-.8008-2.3942-.2983-.8624-.607-1.72-.176-.4916-.3552-.9816-1.9528-5.328-4.3085-10.4439c-.5441-1.1773-1.109-2.3427-1.685-3.5015l.2048-.1184-2.8-4.8428q-1.3981-2.5455-2.9036-5.0224l-2.3045-3.9863-.1434.0828q-1.4062-2.1527-2.8975-4.2451a137.2191,137.2191,0,0,0-43.4982-39.5321A139.8683,139.8683,0,0,0,253.429,73.517l-.0018.0222a53.07,53.07,0,0,1-3.3593,15.9743l-.0065.0164a122.4007,122.4007,0,0,1,48.2322,39.2866q1.5189,2.08,2.9527,4.2248l-43.3681,25.0744-5.4866-1.7187c-.3976-.1247-.7924-.2652-1.19-.3922a222.6275,222.6275,0,0,1-23.1229-8.8246c-5.2584-2.2838-10.4639-4.8142-15.5791-7.5177-2.8312-1.4964-5.6425-3.0308-8.4014-4.6415l-4.0351-2.356-4.0347,2.3575c-2.7969,1.6345-5.651,3.1925-8.5288,4.7125-5.113,2.7-10.3292,5.2349-15.6343,7.5394-6.4334,2.8667-18.9584,7.2777-23.0929,8.7159-.8373.2913-1.3386.4634-1.3666.4731l-4.6978,1.61-43.79-25.2822q1.3536-2.0175,2.7882-3.9751A122.4018,122.4018,0,0,1,149.9382,89.53l-.0089-.0224a53.068,53.068,0,0,1-3.357-15.9682l-.0013-.0163a136.273,136.273,0,0,0-58.84,47.2246q-1.3968,1.9763-2.7285,4.01l-.2046-.1181-8,13.8564.2046.1182q-.9409,1.8675-1.8213,3.7556A136.2826,136.2826,0,0,0,63.409,217.4883l.0087-.0044a52.937,52.937,0,0,1,15.52-5.0236l.0167-.003q-.5893-5.9562-.598-12.0686A120.9413,120.9413,0,0,1,89.1044,150.408c.5747-1.27,1.1778-2.5247,1.7944-3.7713L142,176.14V194.1a70.4953,70.4953,0,0,0,15.65,44.7844c9.7866,12.32,21.9785,20.1319,29.85,24.2938,1.8946,1.0017,3.537,1.7925,4.8362,2.3834l-.0233,56.2056c-1.6046-.099-3.2091-.2251-4.8129-.3884q-4.2157-.4293-8.4187-1.1536l-.0277-.0046c-.8527-.1481-1.7042-.31-2.5552-.4764-.1571-.0309-.3151-.0592-.4719-.0907-.73-.1461-1.4592-.3041-2.188-.4641-.2736-.06-.5484-.1172-.8213-.1792-.626-.142-1.2507-.2945-1.8755-.4468-.3718-.0908-.7448-.1786-1.1153-.2729-.5279-.1339-1.0545-.2771-1.5815-.4185-.4647-.1249-.93-.2474-1.3928-.3777-.4306-.1211-.86-.25-1.29-.3761-.5545-.1629-1.1095-.3245-1.6606-.495-.3316-.1025-.6621-.2114-.9932-.3168-.6467-.2063-1.2934-.4129-1.9354-.63-.2185-.0736-.4361-.1519-.6544-.2268-.7532-.2592-1.5052-.5212-2.2517-.7947-.0805-.0294-.16-.0608-.2409-.09-1.4325-.5274-2.8571-1.0935-4.2775-1.6779-.6543-.27-1.3008-.555-1.9493-.836-.7237-.3126-1.4463-.63-2.1663-.9575q-1.25-.5713-2.4861-1.1688c-.4418-.2133-.8816-.434-1.3218-.6531A121.9938,121.9938,0,0,1,128.93,299.0488c-.013.0159-.0251.0326-.0382.0484a53.9194,53.9194,0,0,1-12.0927,10.8639c-.0237.0155-.0479.03-.0716.0459a139.8471,139.8471,0,0,0,14.4512,9.5828c2.0005,1.1551,4.0234,2.235,6.0564,3.2783.1083.0555.2164.1113.3248.1665q3.91,1.9989,7.9643,3.7465c.4242.1833.8476.37,1.2729.5485.7006.2947,1.4057.5811,2.1121.8645q.8536.342,1.71.67c.6363.2455,1.2719.4925,1.9127.7286q1.6924.6228,3.393,1.202c.4742.1607.9535.31,1.43.4653.822.268,1.6446.5323,2.4693.7841.5024.1536,1.0067.3025,1.5115.45q1.3209.3867,2.6461.7453c.4025.1093.8036.2219,1.2075.3275,1.3077.3415,2.6175.6676,3.93.969.0813.0187.1635.0349.2448.0534q1.906.4341,3.8183.81c.27.0536.5409.104.8113.1559q1.7691.3387,3.542.6319c.1788.0295.3573.06.5363.0891q4.6641.75,9.4279,1.18c1.595.1443,3.1963.2655,4.8062.3547v.216l7.6847.0028.0091,0,.0086,0,8.298.0031,0-.2609.0066,0V265.2451Zm-8.3852-13.8066a75.1611,75.1611,0,0,1-7.5845-3.7875c-1.5044-.8539-3.1339-1.8424-4.8437-2.9711a75.0492,75.0492,0,0,1-15.8459-13.8807A55.6442,55.6442,0,0,1,158,194.1V169.7085c.9242-.3279,1.9384-.69,3.0018-1.0734,1.8549-.6681,3.8726-1.4044,5.9168-2.1683,4.1212-1.54,8.3246-3.181,11.3905-4.5474,3.0843-1.3395,6.1474-2.7659,9.1909-4.2424,4.2464-2.06,8.4489-4.2325,12.5674-6.5344,4.0847,2.2809,8.2439,4.431,12.4326,6.4644,3.03,1.4707,6.0728,2.8881,9.123,4.2128,3.7227,1.6664,7.5137,3.233,11.3434,4.7134q3.14,1.2137,6.3146,2.3349c.9063.3212,1.8095.652,2.719.962V194.1a55.8225,55.8225,0,0,1-13.5758,36.7443A73.84,73.84,0,0,1,212.5,244.7328c-1.4567.9516-2.8461,1.7892-4.1561,2.5387A73.1882,73.1882,0,0,1,199.9282,251.4385Z" fill="#1d428a"/><path d="M34.7422,119.0219l-13.8838-8.0158a200.2787,200.2787,0,0,0,0,177.9878l13.8841-8.016a184.3075,184.3075,0,0,1,0-161.956ZM230.1516,66.0291a30.515,30.515,0,0,0-60.3111.0536l-.0019.0152a30.4022,30.4022,0,0,0,1.8769,15.9752l.0057.0144A30.6571,30.6571,0,0,0,187.5,98.4637a30.4213,30.4213,0,0,0,25,0,30.6558,30.6558,0,0,0,15.7841-16.3907l.015-.0379a30.409,30.409,0,0,0,1.86-15.9524ZM212.5,77.9841a14.5082,14.5082,0,0,1-.8369,1.262l-.0431.0575a14.4706,14.4706,0,0,1-23.24,0l-.0209-.028a14.5,14.5,0,0,1-.8588-1.2909,14.3157,14.3157,0,0,1,0-14.6175l.0309-.0507.0233-.0382a14.4819,14.4819,0,0,1,24.87-.0346c.0147.0243.03.0483.0444.0727l.0313.0514a14.3159,14.3159,0,0,1,0,14.6163ZM105.0879,240.364a30.3227,30.3227,0,0,0-21.6849-5.31l-.0054.0007a30.3743,30.3743,0,0,0-14.7955,6.299l-.0165.013A30.4159,30.4159,0,0,0,57,265.2451c0,.9461.05,1.8805.1344,2.8048A30.489,30.489,0,0,0,98.649,293.6053c.0428-.0168.0856-.0335.1283-.0506a30.6457,30.6457,0,0,0,12.7714-9.5852c.0234-.03.0471-.0595.07-.0894a30.2931,30.2931,0,0,0,6.3936-18.635,30.4777,30.4777,0,0,0-12.9248-24.8811Zm-4.2028,30.4716c-.0149.0354-.0312.07-.0464.1051-.1516.3521-.3206.6948-.4989,1.0318a14.5158,14.5158,0,0,1-12.7622,7.7436c-.024,0-.0472.0036-.0713.0036s-.0452-.0033-.0682-.0035c-.1584-.0007-.3126-.0179-.47-.0237A14.495,14.495,0,0,1,73,265.2451a14.3432,14.3432,0,0,1,1.9644-7.24l.0277-.0456c.0671-.1143.1366-.2268.2067-.3391a14.4969,14.4969,0,0,1,11.8219-6.8254c.1626-.0054.3217-.0245.4856-.0245a14.5492,14.5492,0,0,1,1.8077.1248l.0381.0058a14.45,14.45,0,0,1,11.533,19.9345ZM352.7386,97.3826l13.8893-8.019A199.751,199.751,0,0,0,212.5.402V16.4266a183.7676,183.7676,0,0,1,140.2386,80.956ZM382.2075,282.495a66.26,66.26,0,0,0-132.4057-1.8807l-16.3145,27.7451a12.3729,12.3729,0,0,0-1.3562,9.2766c.0984.3959.21.79.3489,1.1775a12.3781,12.3781,0,0,0,7.373,7.5068l6.6177,2.4746v14.7158a21.4486,21.4486,0,0,0,21.3843,21.3721h14.5068V374a7.9968,7.9968,0,0,0,15.992.1594c.001-.0536.008-.1056.008-.1594V348.8828H267.8687a5.4141,5.4141,0,0,1-5.398-5.3848V317.6934l-13.0444-4.875,1.0746-1.8276,15.1671-25.7935.0473-2.0791a50.2311,50.2311,0,0,1,3.7112-17.8731,50.4557,50.4557,0,0,1,6.7068-11.6473,50.9484,50.9484,0,0,1,5.1118-5.6769,50.2626,50.2626,0,0,1,84.741,31.4841q.1,1.0359.1555,2.0833c.071,1.2978.1083,2.604.0781,3.9248a50.3991,50.3991,0,0,1-18.2851,37.6426l-2.9121,2.4V374a8,8,0,0,0,16,0V332.8574a66.2072,66.2072,0,0,0,21.1933-47.0791C382.2409,284.6779,382.236,283.5837,382.2075,282.495Z" fill="#0091da"/></svg>