<svg width="761" height="555" viewBox="0 0 761 555" fill="none" xmlns="http://www.w3.org/2000/svg"><g clip-path="url(#hero-illustration_svg__a)"><g clip-path="url(#hero-illustration_svg__b)"><g opacity=".6"><mask id="hero-illustration_svg__c" style="mask-type:alpha" maskUnits="userSpaceOnUse" x="32" y="126" width="684" height="396"><circle r="278.94" transform="matrix(.86603 .5 -.86603 .5 373.76 323.949)" fill="#C4C4C4"/></mask><g mask="url(#hero-illustration_svg__c)"><path d="M-113.986 445.853 627.316 17.861M-160.088 419.236 581.215-8.754M-206.189 392.619 535.113-35.372M-252.291 366.003 489.012-61.988M-298.391 339.387 442.912-88.604M-67.887 472.469 673.416 44.478M-21.787 499.085 719.516 71.094M24.316 525.701 765.62 97.71M70.416 552.318l741.303-427.992M116.518 578.935 857.82 150.943M162.617 605.551 903.92 177.56M208.721 632.167l741.302-427.991M254.82 658.783l741.303-427.991M300.92 685.4l741.3-427.992M347.021 712.017l741.299-427.992M393.123 738.633l741.307-427.991M642.598 583.498l-787.985-454.943M596.498 610.116l-787.984-454.943M550.396 636.731l-787.984-454.943M504.297 663.348l-787.985-454.943M458.195 689.964l-787.984-454.943M688.701 556.882-99.283 101.939M734.799 530.265-53.186 75.322M780.902 503.65-7.082 48.707M827 477.033 39.016 22.09M855.975 440.528 85.168-4.498M919.203 423.799 131.219-31.144M965.305 397.183 177.32-57.76M1011.41 370.568 223.422-84.375M1057.51 343.951 269.521-110.992M1103.61 317.335 315.625-137.607M1059.4 238.579 271.416-216.364" stroke="#E0E5EB" stroke-width="1.065"/><circle r="203.349" transform="matrix(.86603 .5 -.86603 .5 373.76 323.95)" stroke="#fff" stroke-width="4.259" stroke-linecap="round" stroke-linejoin="round"/></g></g><path fill="#F6F7F9" d="m375.605 216.952 183.481 105.933-183.481 105.933-183.481-105.933z"/><circle r="6.388" transform="matrix(.86603 .5 -.86603 .5 124.816 325.015)" fill="#0073E6" stroke="#F6F7F8" stroke-width="2.129"/><circle r="5.856" transform="matrix(.86603 .5 -.86603 .5 622.707 323.95)" fill="#EB4748" stroke="#F6F7F8" stroke-width="1.065"/><circle r="6.92" transform="matrix(.86603 .5 -.86603 .5 374.684 468.211)" fill="#FFBF00" stroke="#F6F7F8" stroke-width="3.194"/><g opacity=".18" filter="url(#hero-illustration_svg__d)"><path d="m585.827 408.057-38.333-7.865-35.062 11.913-2.765 23.313 28.752 16.6 40.398-1.586 20.636-20.244-13.626-22.131Z" fill="#0A53A5"/></g><path d="m580.558 406.444-35.793-7.25-32.898 11.243-2.782 21.816L535.84 447.7l37.802-1.597 19.475-18.995-12.559-20.664Z" fill="#0073E6"/><path d="M565.578 436.205c-.057-.033-.115-.066-.057-.099.057-.033-.057-.099-.172-.165-.172-.166-.401-.298-.631-.431-.114-.066-.229-.132-.286-.231l-.057-.034a11.636 11.636 0 0 1-1.605-1.324.356.356 0 0 1 .001-.464c.058.034 0 0 0 0l-.343-.331a18.616 18.616 0 0 0 4.825-3.05c1.264-1.194 2.185-2.519 2.704-3.878h.688l.058-.033c.172-.1.459-.199.689-.2.975.033 1.835.132 2.753.264l.516.099c.345.066.631.099.976.165.114 0 .172.033.286.033.115 0 .058-.033.115-.066.918.065 1.722-.266 1.838-.797.058-.232-.114-.53-.4-.695-.287-.166-.689-.265-1.09-.298l-.115.001c-.115 0-.229 0-.287-.033-.344 0-.688 0-.975.033-.172.033-.345 0-.459.001a18.43 18.43 0 0 1-2.697-.098c-.172-.033-.344-.066-.459-.132-.057-.034-.172-.1-.172-.166l-.057-.033-.746-.099c.001-.53-.055-1.093-.054-1.623-.455-2.186-2.058-4.306-4.465-6.027l.402-.298-.057.033c-.057-.166.058-.298.173-.431.631-.365 1.263-.73 2.067-1.061l.058-.033c.114-.067.287-.1.402-.166.287-.1.516-.233.803-.332l.345-.199c.632-.299.748-.895.232-1.259-.287-.232-.803-.331-1.377-.331-.459.001-.861.1-1.148.266l-.287.166c-.23.133-.402.298-.575.464-.057.1-.172.166-.287.232l-.057.033c-.518.431-1.149.796-1.839 1.194-.229.066-.459.133-.746.1l-.115.066-.516.232c-.688-.33-1.434-.628-2.237-.959-3.268-1.224-7.169-1.818-11.071-1.749l-.114-.331-.057-.034c-.057-.033-.172-.033-.287-.099-.115-.066-.172-.165-.229-.265-.114-.53-.17-1.093-.112-1.59.058-.099 0-.198.001-.265 0-.199.058-.364.058-.563 0-.066-.057-.099-.057-.166v-.066c-.057-.232-.229-.463-.515-.629a1.824 1.824 0 0 0-1.205-.231c-.861.1-1.435.564-1.379 1.061.057.033 0 .066 0 .066s0 .133.057.166c.057.165.172.364.286.563l.172.298c.228.53.457 1.06.456 1.59 0 .132-.115.331-.345.397l.057-.033v.398c-.173.033-.287.033-.46.066-4.591.599-8.668 2.092-11.426 4.281l-.573-.199c-.058.033-.115 0-.115 0-.23.067-.516.034-.803.001a18.056 18.056 0 0 1-2.294-.927 1.196 1.196 0 0 0-.401-.165c-.229-.132-.516-.232-.745-.364-.058-.033-.172-.033-.287-.099-.057-.033-.057-.033-.172-.033-.746-.298-1.721-.198-2.238.233-.403.365-.231.862.342 1.126a.896.896 0 0 0 .344.133c.057.033.057.033.115-.001.057-.033.172.1.229.133.287.099.631.165.86.231.172.033.344.066.459.132l.057.034c.861.231 1.606.462 2.409.793l.057.033c.172.1.287.232.286.365.058.033 0 .066 0 .066l.574.264c-1.783 2.022-2.533 4.309-2.02 6.594.113.53.227.994.513 1.491l-.688.066c-.058.033 0 .067 0 .067-.058.165-.288.298-.517.364-.804.2-1.722.333-2.583.432l-.058.034c-.172.033-.287.033-.516.033-.23 0-.574.067-.976.1-.115 0-.172.033-.287.033 0 0-.057.033-.115 0-.861.167-1.321.697-1.092 1.161a.903.903 0 0 0 .287.298c.458.264 1.147.33 1.778.23 0 0 .057-.033.115 0 .057-.033.172-.033.287-.033.287-.1.574-.133.861-.232l.459-.133c.804-.266 1.665-.432 2.526-.598.287-.033.574 0 .803.066.057.033.057.033.115 0l.688-.133c.974 1.291 2.349 2.417 4.068 3.41a18.231 18.231 0 0 0 3.498 1.554c.745.298 1.605.53 2.351.761l-.173.365c.057.033.057.033 0 .066.115.132.172.298.114.464-.288.497-.576.994-1.035 1.458l-.058.033-.23.265c-.172.166-.345.332-.402.497-.001.067-.058.1-.058.166 0 0-.058.033 0 .066-.173.365-.059.762.4 1.027.172.099.344.132.573.198.344.066.803.066 1.148-.067.344-.132.631-.298.804-.53.057-.033 0-.066 0-.066.058-.034.058-.1.058-.166.115-.199.173-.365.173-.563.058-.1.058-.166.058-.298l.115-.067c.115-.53.403-1.027.748-1.491.115-.133.345-.265.632-.299.057-.033.115 0 .115 0l.287-.364c4.704.66 9.697.358 14.003-.936l.401.298c.057.033.115 0 .115 0 .229 0 .458.066.63.165l.058.033c.515.43.974.894 1.317 1.358l.057.033c.058.099.115.198.229.265.115.198.172.364.344.529.057.034.057.1.172.166.057.033.057.033.057.099.057.1.114.133.229.199.516.298 1.319.364 1.951.198.574-.398.575-.928.174-1.293Zm-14.785-10.592-2.295-.462-.8-1.325 1.264-1.193 2.468-.167 1.719.992-.289 1.425-2.067.73Zm13.077 3.239c-.92.862-2.069 1.591-3.39 2.222l-3.894-4.04c-.401-.364-.171-.828.461-1.06.229-.066.401-.1.631-.1l8.205.227c-.404.961-1.094 1.889-2.013 2.751Zm2.418-4.971-8.031-.79c-.631-.099-1.147-.463-1.032-.861.001-.132.058-.232.231-.331l5.457-3.548c2.235 1.622 3.379 3.543 3.375 5.53Zm-7.445-7.681 1.376.529-6.031 3.151c-.516.299-1.377.266-1.893-.032-.172-.099-.229-.199-.344-.331l-1.368-4.703c2.926.031 5.794.493 8.26 1.386Zm-12.048-1.119.451 4.638c.056.43-.461.795-1.207.828-.287.034-.459.001-.745-.099l-7.169-2.281c2.241-1.492 5.284-2.587 8.67-3.086Zm-10.682 5.042 6.652 2.712c.458.265.63.696.227.994-.115.133-.344.265-.631.298l-7.463 1.794c-.685-1.921-.28-4.009 1.215-5.798Zm5.89 11.624c-.975-.364-1.892-.761-2.752-1.257a13.257 13.257 0 0 1-3.037-2.417l7.921-1.329c.631-.034 1.204.164 1.376.529.057.165.057.298.056.497l-2.245 4.473c-.402-.165-.803-.331-1.319-.496Zm11.99 1.153c-2.238.299-4.648.3-6.885.004l3.163-4.408c.345-.332 1.034-.465 1.608-.333.229.067.458.133.63.232l4.756 3.873c-1.091.299-2.181.531-3.272.632Z" fill="#fff"/><path d="M509.102 435.456v-3.194l26.738 15.437v3.194l-26.738-15.437Z" fill="#1A8CFF"/><path d="M535.841 450.894V447.7l37.802-1.597v3.194l-37.802 1.597Z" fill="#0073E6"/><path d="m593.13 430.362-.021-3.262-19.466 19.003v3.194l19.487-18.935Z" fill="#0059B3"/><g opacity=".12" filter="url(#hero-illustration_svg__e)"><path d="M269.638 278.738c4.073-2.352 10.678-2.352 14.752 0l68.229 39.392c4.074 2.352 4.074 6.166 0 8.518L284.39 366.04c-4.074 2.352-10.679 2.352-14.752 0l-68.23-39.392c-4.074-2.352-4.074-6.166 0-8.518l68.23-39.392Z" fill="#141A1F"/></g><path d="M269.638 274.48c4.073-2.352 10.678-2.352 14.752 0l68.229 39.393c4.074 2.352 4.074 6.165 0 8.517l-68.229 39.392c-4.074 2.352-10.679 2.352-14.752 0l-68.23-39.392c-4.074-2.352-4.074-6.165 0-8.517l68.23-39.393Z" fill="#fff"/><path d="m245.553 319.581-8.047 4.646-.943-.545 1.933-6.179-.078-.045-6.318 3.647-.975-.562 8.047-4.646.943.544-1.933 6.198.078.045 6.334-3.657.959.554Zm-3.818 7.232c-.582-.336-.955-.699-1.12-1.091-.16-.392-.122-.787.114-1.186.241-.4.67-.778 1.289-1.135a6.543 6.543 0 0 1 1.972-.748 6.406 6.406 0 0 1 2.059-.091c.676.082 1.286.28 1.831.594.314.182.572.391.774.629.202.237.31.497.326.778.018.28-.09.574-.326.882-.236.309-.635.626-1.199.951l-.392.227-4.652-2.686.801-.463 3.709 2.141c.341-.196.576-.411.707-.644a.755.755 0 0 0 .059-.696c-.091-.232-.305-.444-.64-.638a3.126 3.126 0 0 0-1.234-.394 4.347 4.347 0 0 0-1.324.052 3.676 3.676 0 0 0-1.151.415l-.535.308c-.455.264-.763.532-.923.806-.154.273-.173.54-.055.798.121.257.368.494.743.71.243.141.497.248.762.322.27.074.546.113.829.116a3.27 3.27 0 0 0 .86-.111l.645.662a4.544 4.544 0 0 1-1.277.189 5.394 5.394 0 0 1-1.36-.168 5.132 5.132 0 0 1-1.292-.529Zm12.695.216-.786.453-3.128-1.805.786-.454 3.128 1.806Zm-.771-2.115.928.536-5.752 3.321c-.262.151-.421.286-.476.406a.298.298 0 0 0 .039.322c.082.095.19.182.327.261.102.059.191.104.267.136l.188.073-.644.589a3.206 3.206 0 0 1-.334-.111 3.028 3.028 0 0 1-.468-.224 1.752 1.752 0 0 1-.601-.543.766.766 0 0 1-.106-.655c.068-.227.278-.442.629-.644l6.003-3.467Zm-2.502 7.194 4.196-4.546.974.562-3.316 3.421.063.036 5.909-1.923.99.571-3.331 3.394.062.036 5.91-1.905.974.562-7.874 2.423-.911-.526 3.316-3.439-.094-.055-5.957 1.915-.911-.526Zm9.743 5.77c-.545-.315-.894-.665-1.045-1.053-.15-.385-.107-.779.129-1.181.239-.401.669-.781 1.293-1.141a6.521 6.521 0 0 1 1.988-.754 6.375 6.375 0 0 1 2.051-.077 4.865 4.865 0 0 1 1.823.604c.545.314.892.664 1.041 1.05.152.387.108.782-.133 1.184-.239.404-.672.787-1.301 1.15a6.37 6.37 0 0 1-1.98.744 6.258 6.258 0 0 1-2.047.075 4.825 4.825 0 0 1-1.819-.601Zm.833-.481c.414.239.86.374 1.339.406.48.032.957-.015 1.431-.14a5.39 5.39 0 0 0 1.316-.538c.403-.233.715-.487.935-.762.22-.276.304-.552.251-.831-.052-.278-.285-.536-.699-.775a3.029 3.029 0 0 0-1.344-.404 4.472 4.472 0 0 0-1.438.145 5.43 5.43 0 0 0-1.32.54c-.403.233-.714.486-.931.76-.217.274-.299.549-.244.826.055.276.29.534.704.773Zm3.442 2.804 6.036-3.484.895.517-.911.527.063.036c.408-.109.85-.134 1.324-.075.474.059.892.193 1.253.402.068.039.152.089.252.149.099.061.172.108.22.141l-.943.544a3.249 3.249 0 0 0-.181-.145 2.645 2.645 0 0 0-.322-.218 2.952 2.952 0 0 0-.971-.347 3.362 3.362 0 0 0-1.045-.022 2.509 2.509 0 0 0-.923.306l-3.819 2.205-.928-.536Zm7.182 1.606 1.131-.671.189.108 5.328-.027 1.147.663-5.658.018-.078-.046-2.059-.045Zm-3.065.771 8.047-4.646.927.536-8.047 4.646-.927-.536Zm3.835 2.214.629-3.085 1.304.009-.754 3.757-1.179-.681Z" fill="#141A1F"/><circle r="19.164" transform="matrix(.86603 .5 -.86603 .5 286.172 313.837)" fill="#EB4748"/><path d="m295.393 308.513-9.221 5.323M272.342 312.239l13.83 1.597M286.172 313.837l2.766 7.985" stroke="#fff" stroke-width="2.129" stroke-linecap="round"/><circle r="3.194" transform="matrix(.86603 .5 -.86603 .5 288.937 321.821)" fill="#fff"/><circle r="3.194" transform="matrix(.86603 .5 -.86603 .5 295.393 308.513)" fill="#fff"/><circle r="3.194" transform="matrix(.86603 .5 -.86603 .5 272.342 312.24)" fill="#fff"/><circle r="4.259" transform="matrix(.86603 .5 -.86603 .5 286.172 313.837)" fill="#fff"/><g opacity=".12" filter="url(#hero-illustration_svg__f)"><path d="M465.104 278.739c4.074-2.352 10.679-2.352 14.753 0l68.229 39.392c4.074 2.352 4.074 6.166 0 8.518l-68.229 39.392c-4.074 2.352-10.679 2.352-14.753 0l-68.229-39.392c-4.074-2.352-4.074-6.166 0-8.518l68.229-39.392Z" fill="#141A1F"/></g><path d="M465.104 274.48c4.074-2.352 10.679-2.352 14.753 0l68.229 39.393c4.074 2.352 4.074 6.165 0 8.517l-68.229 39.392c-4.074 2.352-10.679 2.352-14.753 0l-68.229-39.392c-4.074-2.352-4.074-6.165 0-8.517l68.229-39.393Z" fill="#fff"/><path d="m441.692 329.261-1.022-.59 11.002-2.94 1.006.581-5.092 6.352-1.022-.59 4.369-5.299-.063-.036-9.178 2.522Zm3.52-1.597 4.118 2.377-.864.499-4.118-2.377.864-.499Zm3.627 5.723 8.047-4.645 2.719 1.569c.631.365 1.033.729 1.206 1.091.178.363.171.712-.02 1.046-.191.334-.524.638-.998.912a5.203 5.203 0 0 1-3.398.601 5.468 5.468 0 0 1-1.882-.692l-1.949-1.125.864-.499 1.917 1.107c.433.25.854.407 1.266.472.411.065.802.058 1.174-.02a3.52 3.52 0 0 0 1.049-.397c.323-.186.551-.388.684-.604a.642.642 0 0 0 .024-.676c-.118-.237-.396-.482-.833-.735l-1.713-.989-7.183 4.147-.974-.563Zm16.044-.028-8.046 4.646-.975-.563 8.047-4.646.974.563Z" fill="#141A1F"/><circle r="19.164" transform="matrix(.86603 .5 -.86603 .5 481.639 313.837)" fill="#00877C"/><path d="m487.157 320.103-.448-1.957c.468-.186.906-.395 1.308-.627a7.525 7.525 0 0 0 1.084-.757l3.391.26c.099.007.2-.006.284-.039.084-.032.145-.081.171-.137l1.144-2.417c.026-.056.016-.115-.028-.167a.388.388 0 0 0-.212-.113l-3.172-.735c-.078-.651-.364-1.286-.844-1.874l2.118-1.568c.062-.046.093-.103.087-.16-.006-.058-.048-.112-.118-.153l-3.044-1.757a.566.566 0 0 0-.264-.068.625.625 0 0 0-.278.05l-2.715 1.223a14.606 14.606 0 0 0-3.246-.488l-1.273-1.831a.35.35 0 0 0-.196-.123.699.699 0 0 0-.289-.016l-4.189.661a.476.476 0 0 0-.238.099c-.056.048-.079.107-.066.164l.451 1.957c-.94.371-1.752.84-2.394 1.383l-3.392-.26a.665.665 0 0 0-.284.038c-.084.032-.145.081-.171.137l-1.145 2.418c-.026.056-.016.115.028.167a.388.388 0 0 0 .212.113l3.172.735c.078.651.365 1.287.846 1.874l-2.118 1.568c-.062.046-.093.103-.087.16.005.058.047.112.118.153l3.044 1.757c.07.041.164.065.264.068.1.004.199-.014.278-.05l2.715-1.223c1.018.278 2.119.443 3.246.488l1.273 1.832a.353.353 0 0 0 .196.122.699.699 0 0 0 .289.016l4.188-.661a.481.481 0 0 0 .237-.098c.056-.049.079-.107.067-.164Zm-8.728-4.411c-.628-.363-1.053-.826-1.222-1.331-.17-.505-.075-1.03.272-1.507.346-.478.929-.887 1.675-1.176.745-.289 1.62-.445 2.513-.448.893-.003 1.765.147 2.505.431.739.284 1.314.69 1.651 1.165.337.475.422.999.242 1.506-.179.506-.614.972-1.249 1.339-.852.491-2.003.77-3.201.774-1.198.004-2.344-.267-3.186-.753Z" fill="#fff"/><g opacity=".12" filter="url(#hero-illustration_svg__g)"><path d="M367.37 335.166c4.074-2.352 10.679-2.352 14.752 0l68.23 39.392c4.073 2.352 4.073 6.165 0 8.517l-68.23 39.393c-4.073 2.352-10.678 2.352-14.752 0l-68.229-39.393c-4.074-2.352-4.074-6.165 0-8.517l68.229-39.392Z" fill="#141A1F"/></g><path d="M367.37 330.907c4.074-2.352 10.679-2.352 14.752 0l68.23 39.392c4.073 2.352 4.073 6.166 0 8.518l-68.23 39.392c-4.073 2.352-10.678 2.352-14.752 0l-68.229-39.392c-4.074-2.352-4.074-6.166 0-8.518l68.229-39.392Z" fill="#fff"/><path d="m334.97 380.499 8.047-4.646.974.563-3.992 2.305.094.054 7.607-.218 1.273.735-7.009.145-1.038 4.501-1.178-.681.943-3.774-2.138.072-2.609 1.507-.974-.563Zm9.053 5.372c-.581-.335-.954-.699-1.119-1.091-.16-.392-.122-.787.114-1.186.241-.399.67-.778 1.288-1.134a6.525 6.525 0 0 1 1.973-.749 6.435 6.435 0 0 1 2.059-.091c.675.082 1.286.28 1.83.595.315.181.573.39.774.628.202.237.311.497.327.778.018.28-.091.574-.327.882-.235.309-.635.626-1.198.951l-.393.227-4.652-2.686.802-.463 3.709 2.142c.34-.197.576-.412.707-.645a.758.758 0 0 0 .059-.696c-.092-.231-.305-.444-.641-.638a3.121 3.121 0 0 0-1.233-.394 4.346 4.346 0 0 0-1.324.052 3.716 3.716 0 0 0-1.152.415l-.534.309c-.456.263-.763.531-.923.805-.155.274-.173.54-.055.798.12.257.368.494.742.71.244.141.498.248.763.323a3.245 3.245 0 0 0 1.689.004l.644.662a4.537 4.537 0 0 1-1.276.189 5.394 5.394 0 0 1-1.36-.168 5.154 5.154 0 0 1-1.293-.529Zm4.036 2.185 6.035-3.485.895.518-.911.526.063.036c.408-.109.85-.134 1.324-.075.474.059.892.193 1.253.402a11.19 11.19 0 0 1 .472.29l-.943.545a2.819 2.819 0 0 0-.181-.145 2.435 2.435 0 0 0-.322-.218 2.93 2.93 0 0 0-.971-.347 3.362 3.362 0 0 0-1.045-.023 2.509 2.509 0 0 0-.923.306l-3.819 2.205-.927-.535Zm8.674.816-3.631 2.096-.927-.535 6.035-3.485.896.517-.943.545.079.045a4.15 4.15 0 0 1 1.383-.054 3.65 3.65 0 0 1 1.398.481c.409.236.683.49.822.764.141.272.128.555-.04.849-.165.291-.504.586-1.017.882l-3.835 2.214-.927-.535 3.772-2.178c.474-.274.72-.558.738-.853.021-.296-.183-.569-.613-.817a2.92 2.92 0 0 0-.986-.347 3.328 3.328 0 0 0-2.204.411Zm4.319 6.831c-.582-.336-.955-.7-1.12-1.091-.16-.392-.122-.788.114-1.187.241-.399.671-.777 1.289-1.134a6.545 6.545 0 0 1 1.972-.749 6.406 6.406 0 0 1 2.059-.09 4.744 4.744 0 0 1 1.831.594c.314.181.572.391.774.628.202.238.31.497.326.778.018.28-.09.574-.326.883-.236.308-.635.625-1.198.95l-.393.227-4.652-2.686.801-.462 3.709 2.141c.341-.197.577-.411.708-.644a.76.76 0 0 0 .058-.697c-.091-.231-.305-.444-.64-.637a3.127 3.127 0 0 0-1.234-.395 4.38 4.38 0 0 0-1.324.052 3.71 3.71 0 0 0-1.151.415l-.534.309c-.456.263-.764.532-.924.805-.154.274-.173.54-.055.799.121.257.368.494.743.71.243.14.498.248.762.322.27.074.546.113.829.116.286.001.572-.036.861-.112l.644.663a4.508 4.508 0 0 1-1.277.188 5.387 5.387 0 0 1-1.359-.168 5.1 5.1 0 0 1-1.293-.528Zm13.009-1.926-8.047 4.646-.927-.536 8.047-4.646.927.536Z" fill="#141A1F"/><circle r="19.164" transform="matrix(.86603 .5 -.86603 .5 383.904 370.263)" fill="#0073E6"/><rect width="16.426" height="13.688" rx="1.704" transform="matrix(.86603 .5 -.86603 .5 382.717 362.735)" fill="#fff"/><rect width="21.293" height="17.035" rx="1.704" transform="matrix(.86603 .5 -.86603 .5 382.059 360.682)" fill="#fff"/><path d="m382.981 366.537-4.61.533-.922 2.661M390.355 370.796l-.922 2.661-4.61.533M388.512 368.666l-9.22 3.194" stroke="#0073E6" stroke-width="2.13" stroke-linecap="round" stroke-linejoin="round"/><g opacity=".14" filter="url(#hero-illustration_svg__h)"><circle r="36.198" transform="matrix(.86603 .5 -.86603 .5 201.346 425.625)" fill="#00332F"/></g><path d="M240.421 426.997v-4.364h-10.868a39.521 39.521 0 0 0-1.388-.839c-16.339-9.434-42.831-9.434-59.171 0-.476.274-.939.554-1.387.839H156.74v4.364h.03c.391 5.868 4.466 11.669 12.224 16.148 16.34 9.434 42.832 9.434 59.172 0 7.758-4.479 11.833-10.28 12.223-16.148h.032Z" fill="#00665E"/><circle r="34.069" transform="matrix(.86603 .5 -.86603 .5 198.58 422.963)" fill="#00877C"/><path d="M213.394 426.548a9.913 9.913 0 0 0-.633-.328c1.537-1.716 2.151-3.617 1.758-5.441-.393-1.823-1.774-3.479-3.952-4.736-2.178-1.258-5.045-2.055-8.203-2.282-3.159-.227-6.452.128-9.425 1.015a7.574 7.574 0 0 0-.567-.365c-1.858-1.073-4.45-1.635-7.205-1.562-2.755.073-5.447.775-7.485 1.952-2.038 1.176-3.254 2.731-3.381 4.322-.127 1.59.846 3.087 2.705 4.16l21.022 12.137c1.858 1.073 4.45 1.634 7.205 1.561 2.755-.073 5.448-.775 7.485-1.952 2.038-1.176 3.254-2.731 3.381-4.321.127-1.591-.846-3.087-2.705-4.16Z" fill="#fff"/><path d="m203.189 420.302 1.844 10.646M184.75 419.237l18.44 1.065" stroke="#00877C" stroke-width="2.129" stroke-linecap="round"/><circle r="3.194" transform="matrix(.86603 .5 -.86603 .5 203.189 420.302)" fill="#00877C" stroke="#fff" stroke-width="2.129"/><circle r="3.194" transform="matrix(.86603 .5 -.86603 .5 184.75 419.237)" fill="#00877C" stroke="#fff" stroke-width="2.129"/><circle r="3.194" transform="matrix(.86603 .5 -.86603 .5 205.035 430.949)" fill="#00877C" stroke="#fff" stroke-width="2.129"/><path d="M366.848 113.414c4.329-2.499 11.346-2.499 15.675 0l164.119 94.754c4.328 2.499 4.328 6.551 0 9.05l-164.119 94.754c-4.329 2.499-11.346 2.499-15.675 0l-164.119-94.754c-4.328-2.499-4.328-6.551 0-9.05l164.119-94.754Z" fill="#FFF5D6" stroke="#FFBF00" stroke-width="3.194" stroke-linejoin="round"/><path d="m383.906 278.702 105.11-60.685M260.355 207.37l105.11-60.685M489.016 207.37l-105.11-60.685" stroke="#fff" stroke-width="3.194" stroke-linecap="round" stroke-linejoin="round" stroke-dasharray="0.01 6.39"/><path d="m365.464 278.701-10.142-5.855M270.498 223.872l-10.143-5.855" stroke="#fff" stroke-width="3.194" stroke-linecap="round" stroke-linejoin="round" stroke-dasharray="0.01 7.45"/><rect width="10.647" height="10.647" rx="5.323" transform="matrix(.86603 .5 -.86603 .5 251.135 207.369)" fill="#fff" stroke="#FFBF00" stroke-width="3.194"/><rect width="10.647" height="10.647" rx="5.323" transform="matrix(.86603 .5 -.86603 .5 374.686 278.701)" fill="#fff" stroke="#FFBF00" stroke-width="3.194"/><rect width="10.647" height="10.647" rx="5.323" transform="matrix(.86603 -.5 .86603 .5 489.016 212.692)" fill="#fff" stroke="#FFBF00" stroke-width="3.194"/><path d="M323.042 254.835c-.063-.517-.379-1.009-.912-1.421.621.19 1.307.301 2.012.328a6.969 6.969 0 0 0 1.768-.194 5.019 5.019 0 0 0 1.474-.607c2.15-1.241 1.923-2.862-.648-4.347l-6.356-3.67-2.297 1.326-5.109 2.951a28.926 28.926 0 0 1-3.623.203c-2.07 0-4.092-.317-5.859-.92-.79-.277-1.451-.658-1.931-1.114-.412-.394-.625-.848-.615-1.312.01-.465.242-.921.67-1.319.096-.113.163-.094.316-.046.152.048.532.218.82.315 1.448.516 3.062.864 4.751 1.024a17.38 17.38 0 0 0 3.398-.015 6.842 6.842 0 0 0 1.88-.414c.476-.18.859-.43 1.108-.725.248-.295.353-.622.301-.945-.076-.574-.505-1.11-1.208-1.512-.691-.411-1.552-.713-2.505-.88a16.053 16.053 0 0 0-4.51-.17 13.922 13.922 0 0 0-3.513.763c-1.069.412-1.987.942-2.702 1.559a4.46 4.46 0 0 0-.703.766c-.496.642-.69 1.345-.562 2.038.129.692.575 1.348 1.293 1.901.705.567 1.618 1.036 2.676 1.376 1.944.655 4.175.984 6.446.95a20.194 20.194 0 0 0 1.8-.173l-1.523.879-2.348 1.356 6.55 3.782c2.773 1.601 5.785 1.741 8.125.39.508-.27.91-.6 1.175-.967.266-.367.389-.762.361-1.156Zm-19.806-11.206a8.353 8.353 0 0 1 1.662-.551 13.46 13.46 0 0 1 4.713-.259c.585.069 1.134.21 1.611.414l.303.175c.263.153.458.341.57.547.097.168.078.352-.053.515-.132.163-.365.291-.652.36-.296.079-.61.132-.931.157a14.777 14.777 0 0 1-3.107-.075 16.25 16.25 0 0 1-3.807-.936l-.346-.141c-.144-.082-.177-.102.011-.192l.026-.014Zm17.562 4.646 2.774 1.601c.91.526.943 1.071.152 1.528a2.108 2.108 0 0 1-.62.252 2.917 2.917 0 0 1-.74.082 2.755 2.755 0 0 1-.726-.103 1.858 1.858 0 0 1-.579-.269l-2.807-1.621 2.546-1.47Zm-5.239 6.412-2.933-1.694 3.028-1.748 2.917 1.684c.23.107.419.241.552.394a.852.852 0 0 1 .222.494.786.786 0 0 1-.147.506 1.47 1.47 0 0 1-.491.433c-.213.123-.469.22-.749.283-.28.064-.579.093-.878.085a3.366 3.366 0 0 1-.854-.128 2.25 2.25 0 0 1-.683-.319l.016.01ZM338.733 255.549l-5.69-3.285-2.323 1.341-8.791 5.076-2.409 1.39 3.161 1.825 4.542-2.622 2.529 1.46c3.085 1.781 6.627 1.839 9.517.17 2.891-1.668 2.583-3.554-.536-5.355Zm-6.38 3.498-2.368-1.367 3.441-1.987 2.368 1.368c.271.113.491.261.644.433a.867.867 0 0 1 .241.557.862.862 0 0 1-.213.566 1.76 1.76 0 0 1-.622.459c-.223.145-.498.26-.804.338a3.772 3.772 0 0 1-.969.115 3.701 3.701 0 0 1-.955-.13 2.469 2.469 0 0 1-.763-.352ZM349.109 264.839l2.663 1.538 2.856-1.649-9.407-5.431-13.523 7.807 3.152 1.821 5.222-3.015 5.53 3.193 2.779-1.605-5.564-3.212 2.667-1.539 3.625 2.092Z" fill="#000"/><path d="M285.104 239.897c.521-.995 1.452-1.907 2.713-2.655 1.262-.749 2.815-1.312 4.524-1.64l.326-1.093-.817-.989c-1.79-.017-3.537-.287-5.088-.786-1.551-.499-2.86-1.212-3.812-2.077-4.157 1.077-5.937 2.065-6.326 5.288 1.838 2.998 3.998 3.629 8.48 3.952Z" fill="#FFE100"/><path d="M295.851 231.974c.241-1.113-3.202-4.829-8.397-6.259-6.736-1.902-7.443 4.414-1.472 6.759 3.805 1.492 9.444 1.41 9.869-.5Z" fill="#D9F1FD"/><path d="m288.974 229.476.168-.34a5.376 5.376 0 0 0-.936-.054 22.457 22.457 0 0 0-1.69-.737l.086-.05a1.769 1.769 0 0 1-.15-1.191c.09-.4.321-.787.677-1.137l-.542-.184-.559-.184c-.675.689-.999 1.47-.934 2.253a21.942 21.942 0 0 0-3.333-.753l-.345.725c1.849.277 3.574.767 5.076 1.44-1.4.321-2.621.863-3.519 1.564l.997.457c.889-.737 2.226-1.256 3.738-1.448 1.895.986 3.496 2.146 4.742 3.433l1.13-.34c-1.227-1.288-2.795-2.455-4.648-3.459l.042.005Z" fill="#00AEEF"/><path d="M296.891 236.4c.74 1.023-.934 5.172-5.223 7.464-5.597 2.997-9.145-2.936-4.481-6.222 2.975-2.097 8.423-3.004 9.704-1.242Z" fill="#D9F1FD"/><path d="m290.398 244.224.912-.526c-.501-.275-.898-.606-1.167-.975-.268-.368-.403-.766-.396-1.169l-.127-.014a13.98 13.98 0 0 0 1.295-1.001 5.94 5.94 0 0 0 .872-.211l-.31-.299c1.32-1.286 2.292-2.678 2.882-4.126l-1.257-.141c-.614 1.454-1.624 2.845-2.993 4.123-1.539.077-3.058-.188-4.245-.742l-.709.584c1.18.522 2.603.833 4.098.896-1.141.903-2.572 1.673-4.213 2.266l.62.616a17.024 17.024 0 0 0 2.884-1.315c.284.744.927 1.422 1.856 1.956l-.002.078Z" fill="#00AEEF"/><path d="M310.655 236.359a.349.349 0 0 0-.073-.211.754.754 0 0 0-.261-.151 1.244 1.244 0 0 0-.679-.153c-2.03.033-4.009-.318-5.636-.999.09-.439.086-.882-.011-1.318-.138-.565-.43-1.113-.866-1.622 1.253-1.007 3.062-1.738 5.12-2.07.121-.025.236-.059.342-.101a.914.914 0 0 0 .267-.154.36.36 0 0 0 .123-.207.285.285 0 0 0-.022-.221.513.513 0 0 0-.175-.191.722.722 0 0 0-.261-.151 1.517 1.517 0 0 0-.732-.044c-2.251.364-4.26 1.126-5.743 2.177-.64-.458-1.473-.813-2.422-1.033a10.291 10.291 0 0 0-3.006-.224 9.699 9.699 0 0 0-.948.139c-1.731-1.946-4.436-3.539-7.771-4.576-2.601-.727-4.888-.458-6.101.729-1.117 1.083-1.113 2.784-.016 4.331-1.64.336-3.065.959-4.074 1.781-1.01.822-1.552 1.802-1.55 2.8l-3.55 1.426 4.056.763c.402.785 1.125 1.499 2.11 2.082.335.192.699.366 1.089.52 1.264.494 2.748.773 4.286.806a3.08 3.08 0 0 0 .197 2.172c.331.705.919 1.358 1.724 1.917l.101.058c1.738.944 4.031.798 6.223-.38 2.737-1.58 4.613-3.585 5.389-5.759.321.007.644-.003.963-.031a8.948 8.948 0 0 0 2.458-.586c.736-.299 1.35-.689 1.796-1.14a4.5 4.5 0 0 0 .643-.77c1.824.658 3.953.989 6.123.952.127-.002.252-.018.368-.049.116-.03.221-.073.308-.127a.673.673 0 0 0 .213-.184.372.372 0 0 0 .075-.216l-.077.015Zm-16.616-.335c-.526 1.074-1.24 2.116-2.132 3.11a8.188 8.188 0 0 1-2.564.382 7.811 7.811 0 0 1-2.519-.417 4.816 4.816 0 0 1 1.109-1.097c.74-.549 1.664-1.008 2.713-1.348a13.98 13.98 0 0 1 3.393-.63Zm-2.583-.816c-1.566.342-2.993.874-4.183 1.559-.888-.402-1.457-.995-1.58-1.648a1.443 1.443 0 0 1 .065-.957c.132-.315.369-.613.7-.876 1.467.45 3.092.711 4.763.763.01.387.098.771.261 1.144l-.026.015Zm-1.607-4.99a21.261 21.261 0 0 1 3.403 2.63 15.094 15.094 0 0 1-3.542-.003c-1.163-.14-2.26-.417-3.222-.813a7.714 7.714 0 0 1-1.603-.846c.612-.396 1.396-.689 2.268-.849a8.531 8.531 0 0 1 2.678-.06l.018-.059Zm.844-2.434c2.756 1.592 4.356 3.598 4.227 4.149a.78.78 0 0 1-.254.41 1.536 1.536 0 0 1-.534.308 20.735 20.735 0 0 0-2.947-2.338 23.243 23.243 0 0 0-3.89-2.047c-.344-.616-.284-1.287.169-1.889 1.193.382 2.283.861 3.237 1.422l-.008-.015Zm-7.216-1.265c.641-.624 1.707-.733 3.199-.368-.397.543-.559 1.131-.472 1.713a20.801 20.801 0 0 0-3.128-.812c.078-.178.199-.349.358-.509l.043-.024Zm-.512.996c2.24.465 4.271 1.204 5.957 2.167a10.099 10.099 0 0 0-2.427.284c-.77.19-1.466.469-2.046.819-1.127-.959-1.659-2.116-1.509-3.285l.025.015Zm-1.933 11.191c-.802-.344-1.467-.782-1.952-1.286-.485-.504-.78-1.064-.866-1.643-.428-1.846.825-3.854 4.482-4.534.159.151.343.298.528.444-.727.534-1.26 1.147-1.564 1.8a2.927 2.927 0 0 0-.205 1.996c.237 1.084 1.083 2.085 2.41 2.852.317.183.658.35 1.022.501-.114.162-.21.325-.298.493-1.277-.002-2.516-.221-3.566-.628l.009.005Zm5.477 4.235c-.655-1.096-.64-2.296.043-3.402a9.304 9.304 0 0 0 2.307.415c.814.046 1.638-.004 2.423-.148-1.202 1.233-2.841 2.308-4.807 3.155l.034-.02Zm.99.85a3.808 3.808 0 0 1-.589-.41 15.984 15.984 0 0 0 2.621-1.348c.181.571.598 1.105 1.216 1.557-1.271.607-2.371.677-3.248.201Zm3.893-.544c-.707-.498-1.074-1.129-1.033-1.779 1.106-.821 2.047-1.71 2.805-2.651a13.134 13.134 0 0 0 1.769-2.754c.244.035.471.102.661.197.19.094.339.213.436.347.499.685-.801 4.415-4.638 6.64Z" fill="#000"/><rect y="1.597" width="207.608" height="207.608" rx="9.05" transform="matrix(.86603 .5 -.86603 .5 376.071 38.89)" fill="#fff" stroke="#E0E5EB" stroke-width="3.194"/><path opacity=".8" d="M374.686 41.284v204.414M551.713 143.491H197.658" stroke="#E0E5EB" stroke-width="1.065"/><circle r="80.914" transform="matrix(.86603 .5 -.86603 .5 374.686 143.491)" fill="#fff"/><circle r="80.382" transform="matrix(.86603 .5 -.86603 .5 374.686 143.491)" stroke="#E0E5EB" stroke-opacity=".8" stroke-width="1.065"/><circle r="63.879" transform="matrix(.86603 .5 -.86603 .5 374.686 143.492)" fill="#fff" stroke="#E0E5EB" stroke-opacity=".8" stroke-width="2.129" stroke-linecap="round" stroke-dasharray="0.01 5.32"/><circle r="5.323" transform="matrix(.86603 .5 -.86603 .5 374.687 214.823)" fill="#fff" stroke="#0073E5" stroke-width="3.194" stroke-linejoin="round"/><circle r="5.323" transform="matrix(.86603 .5 -.86603 .5 498.238 143.491)" fill="#fff" stroke="#0073E5" stroke-width="3.194" stroke-linejoin="round"/><circle r="5.323" transform="matrix(.86603 .5 -.86603 .5 374.687 72.16)" fill="#fff" stroke="#0073E5" stroke-width="3.194" stroke-linejoin="round"/><circle r="5.323" transform="matrix(.86603 .5 -.86603 .5 251.137 143.491)" fill="#fff" stroke="#0073E5" stroke-width="3.194" stroke-linejoin="round"/><path d="m393.198 140.424-13.308-7.684-18.493 2.96-5.037 10.59 13.337 7.7 18.341-2.908 5.16-10.658Zm-22.07 10.692-9.794-5.655 3.639-7.732 13.486-2.151 9.795 5.655-3.725 7.787-13.401 2.096Z" fill="#141A1F"/><path d="m364.938 137.742-3.606 7.718 9.795 5.655 13.398-2.064 3.813-7.873-9.795-5.655-13.605 2.219Z" fill="#E83030"/><path d="m368.097 154.916-13.309-7.684-18.462 2.943-5.037 10.589 13.337 7.7 18.342-2.908 5.129-10.64Zm-22.16 10.744-9.795-5.655 3.639-7.732 13.487-2.151 9.795 5.655-3.725 7.787-13.401 2.096Z" fill="#141A1F"/><path d="m339.867 152.216-3.724 7.787 9.794 5.655 13.518-2.133 3.693-7.804-9.794-5.655-13.487 2.15Z" fill="#6B91C7"/><path d="m418.39 125.88-13.309-7.684-18.493 2.961-5.006 10.607 13.337 7.7 18.341-2.908 5.13-10.676Zm-22.07 10.692-9.795-5.655 3.639-7.732 13.574-2.201 9.795 5.655-3.725 7.787-13.488 2.146Z" fill="#141A1F"/><path d="m390.131 123.196-3.606 7.718 9.795 5.655 13.399-2.064 3.812-7.873-9.794-5.655-13.606 2.219Z" fill="#F9C31F"/><path d="m402.206 160.219-13.202-7.622-18.463 2.978-5.037 10.589 13.337 7.7 18.342-2.908 5.023-10.737Zm-22.12 10.721-9.795-5.655 3.635-7.735 13.487-2.15 9.795 5.655-3.725 7.787-13.397 2.098Z" fill="#141A1F"/><path d="m373.881 157.553-3.565 7.775 9.768 5.639 13.515-2.03 3.725-7.923-9.767-5.64-13.676 2.179Z" fill="#795AA5"/><path d="m427.396 145.676-13.203-7.622-18.341 2.908-5.038 10.589 13.338 7.701 18.341-2.909 4.903-10.667Zm-22.1 10.709-9.794-5.655 3.635-7.735 13.486-2.15 9.795 5.655-3.725 7.787-13.397 2.098Z" fill="#141A1F"/><path d="m399.113 142.984-3.758 7.797 9.846 5.684 13.516-2.03 3.725-7.923-9.847-5.685-13.482 2.157Z" fill="#F17423"/><path d="m358.795 135.156-13.223-7.635-18.462 2.978-5.037 10.59 13.337 7.7 18.341-2.908 5.044-10.725Zm-22.101 10.71-9.677-5.587 3.635-7.734 13.487-2.151 9.794 5.655-3.724 7.787-13.515 2.03Z" fill="#141A1F"/><path d="m330.655 132.544-3.635 7.735 9.676 5.586 13.515-2.03 3.725-7.923-9.676-5.587-13.605 2.219Z" fill="#97C639"/><path d="m383.986 120.611-13.222-7.635-18.342 2.909-5.037 10.589 13.337 7.7 18.342-2.908 4.922-10.655Zm-22.101 10.71-9.676-5.587 3.635-7.734 13.486-2.151 9.795 5.655-3.725 7.787-13.515 2.03Z" fill="#141A1F"/><path d="m355.846 117.999-3.635 7.735 9.676 5.586 13.516-2.03 3.725-7.923-9.677-5.587-13.605 2.219Z" fill="#C9DB70"/><path d="m239.15 117.939-36.419 21.027c-4.329 2.499-4.329 6.551 0 9.05l36.419 21.027M418.943 221.743l-36.419 21.027c-4.329 2.499-11.346 2.499-15.675 0l-36.419-21.027M510.225 169.043l36.419-21.027c4.329-2.499 4.329-6.551 0-9.05l-36.419-21.026M330.432 65.24l36.419-21.028c4.329-2.499 11.346-2.499 15.675 0l36.419 21.027" stroke="#0073E5" stroke-width="3.194" stroke-linecap="round" stroke-linejoin="round"/></g><path opacity=".4" d="M198 313V148M375 416V249M551 312V149" stroke="#A7B1BE" stroke-linecap="round" stroke-linejoin="round" stroke-dasharray="0.01 6"/></g><defs><filter id="hero-illustration_svg__d" x="496.892" y="387.416" width="115.337" height="77.379" filterUnits="userSpaceOnUse" color-interpolation-filters="sRGB"><feFlood flood-opacity="0" result="BackgroundImageFix"/><feBlend in="SourceGraphic" in2="BackgroundImageFix" result="shape"/><feGaussianBlur stdDeviation="6.388" result="effect1_foregroundBlur_3751_8167"/></filter><filter id="hero-illustration_svg__e" x="190.901" y="269.522" width="172.225" height="105.734" filterUnits="userSpaceOnUse" color-interpolation-filters="sRGB"><feFlood flood-opacity="0" result="BackgroundImageFix"/><feBlend in="SourceGraphic" in2="BackgroundImageFix" result="shape"/><feGaussianBlur stdDeviation="3.726" result="effect1_foregroundBlur_3751_8167"/></filter><filter id="hero-illustration_svg__f" x="386.368" y="269.523" width="172.225" height="105.734" filterUnits="userSpaceOnUse" color-interpolation-filters="sRGB"><feFlood flood-opacity="0" result="BackgroundImageFix"/><feBlend in="SourceGraphic" in2="BackgroundImageFix" result="shape"/><feGaussianBlur stdDeviation="3.726" result="effect1_foregroundBlur_3751_8167"/></filter><filter id="hero-illustration_svg__g" x="288.633" y="325.95" width="172.225" height="105.734" filterUnits="userSpaceOnUse" color-interpolation-filters="sRGB"><feFlood flood-opacity="0" result="BackgroundImageFix"/><feBlend in="SourceGraphic" in2="BackgroundImageFix" result="shape"/><feGaussianBlur stdDeviation="3.726" result="effect1_foregroundBlur_3751_8167"/></filter><filter id="hero-illustration_svg__h" x="144.236" y="387.253" width="114.22" height="76.743" filterUnits="userSpaceOnUse" color-interpolation-filters="sRGB"><feFlood flood-opacity="0" result="BackgroundImageFix"/><feBlend in="SourceGraphic" in2="BackgroundImageFix" result="shape"/><feGaussianBlur stdDeviation="6.388" result="effect1_foregroundBlur_3751_8167"/></filter><clipPath id="hero-illustration_svg__a"><path fill="#fff" d="M0 0h761v555H0z"/></clipPath><clipPath id="hero-illustration_svg__b"><path fill="#fff" transform="scale(1.22474 .7071) rotate(45 567.63 -67.57)" d="M0 0h1348.92v995.453H0z"/></clipPath></defs></svg>